<svg width="11" height="10" viewBox="0 0 11 10" fill="none" xmlns="http://www.w3.org/2000/svg">
<path fill-rule="evenodd" clip-rule="evenodd" d="M11 5.00001C11 5.16577 10.9342 5.32474 10.8169 5.44195C10.6997 5.55916 10.5408 5.62501 10.375 5.62501L3.13375 5.62501L5.8175 8.30751C5.93486 8.42487 6.00079 8.58404 6.00079 8.75001C6.00079 8.91598 5.93486 9.07515 5.8175 9.19251C5.70014 9.30987 5.54097 9.3758 5.375 9.3758C5.20903 9.3758 5.04986 9.30987 4.9325 9.19251L1.1825 5.44251C1.1243 5.38445 1.07812 5.31548 1.04661 5.23955C1.0151 5.16362 0.998884 5.08222 0.998884 5.00001C0.998884 4.9178 1.0151 4.8364 1.04661 4.76047C1.07812 4.68454 1.1243 4.61557 1.1825 4.55751L4.9325 0.80751C5.04986 0.690152 5.20903 0.62422 5.375 0.62422C5.54097 0.62422 5.70014 0.690152 5.8175 0.80751C5.93486 0.924868 6.00079 1.08404 6.00079 1.25001C6.00079 1.41598 5.93486 1.57515 5.8175 1.69251L3.13375 4.37501L10.375 4.37501C10.5408 4.37501 10.6997 4.44086 10.8169 4.55807C10.9342 4.67528 11 4.83425 11 5.00001Z" fill="#505AF0"/>
</svg>
